<?xml version="1.0" encoding="UTF-8" standalone="no"?>
<svg width="150px" height="150px" viewBox="0 0 150 150" version="1.1" xmlns="http://www.w3.org/2000/svg" xmlns:xlink="http://www.w3.org/1999/xlink" xmlns:sketch="http://www.bohemiancoding.com/sketch/ns">
    <!-- Generator: Sketch 3.3.1 (12002) - http://www.bohemiancoding.com/sketch -->
    <title>Group</title>
    <desc>Created with Sketch.</desc>
    <defs>
        <path id="path-1" d="M0.0231362468,0.361696658 L149.614396,0.361696658 L149.614396,149.976093 L0.0231362468,149.976093 L0.0231362468,0.361696658 Z"></path>
    </defs>
    <g id="Pieces" stroke="none" stroke-width="1" fill="none" fill-rule="evenodd" sketch:type="MSPage">
        <g id="Desktop-HD" sketch:type="MSArtboardGroup" transform="translate(-1117.000000, -4409.000000)">
            <g id="Group" sketch:type="MSLayerGroup" transform="translate(1117.411662, 4409.000000)">
                <mask id="mask-2" sketch:name="Clip 2" fill="white">
                    <use xlink:href="#path-1"></use>
                </mask>
                <g id="Clip-2"></g>
                <path d="M97.9839332,91.8401028 L97.9839332,58.1359897 C97.9839332,54.5930591 95.1026992,51.712982 91.5613111,51.712982 L57.8556555,51.712982 C54.3158098,51.712982 51.4345758,54.5930591 51.4345758,58.1359897 L51.4345758,91.8401028 C51.4345758,95.381491 54.3158098,98.2627249 57.8556555,98.2627249 L91.5613111,98.2627249 C95.1026992,98.2627249 97.9839332,95.381491 97.9839332,91.8401028 L97.9839332,91.8401028 Z M54.0570694,91.8401028 L54.0570694,66.3902314 L73.5312339,66.3902314 C74.2542416,66.3902314 74.8419023,65.8041131 74.8419023,65.0799486 C74.8419023,64.3553985 74.2542416,63.7692802 73.5312339,63.7692802 L54.0570694,63.7692802 L54.0570694,58.1359897 C54.0570694,56.0390746 55.7602828,54.3354756 57.8556555,54.3354756 L91.5613111,54.3354756 C93.6566838,54.3354756 95.3618252,56.0390746 95.3618252,58.1359897 L95.3618252,83.0780206 L75.4607969,83.0780206 C74.7377892,83.0780206 74.1505141,83.6641388 74.1505141,84.3886889 C74.1505141,85.1132391 74.7377892,85.6989717 75.4607969,85.6989717 L95.3618252,85.6989717 L95.3618252,91.8401028 C95.3618252,93.9354756 93.6566838,95.6402314 91.5613111,95.6402314 L57.8556555,95.6402314 C55.7602828,95.6402314 54.0570694,93.9354756 54.0570694,91.8401028 L54.0570694,91.8401028 Z" id="Fill-1" fill="#01A9F4" sketch:type="MSShapeGroup" mask="url(#mask-2)"></path>
                <path d="M144.884576,68.5758355 C147.293059,68.5758355 149.252699,66.6161954 149.252699,64.2061697 C149.252699,61.7976864 147.293059,59.8380463 144.884576,59.8380463 L127.187661,59.8380463 L127.187661,47.0120823 L144.884576,47.0120823 C147.293059,47.0120823 149.252699,45.0524422 149.252699,42.6439589 C149.252699,40.2354756 147.293059,38.2758355 144.884576,38.2758355 L127.187661,38.2758355 L127.187661,35.7269923 C127.187661,28.4383033 121.258997,22.5080977 113.969923,22.5080977 L111.33856,22.5080977 L111.33856,4.72982005 C111.33856,2.32133676 109.37892,0.361696658 106.970437,0.361696658 C104.561954,0.361696658 102.602314,2.32133676 102.602314,4.72982005 L102.602314,22.5080977 L89.7763496,22.5080977 L89.7763496,4.72982005 C89.7763496,2.32133676 87.8167095,0.361696658 85.4082262,0.361696658 C82.9982005,0.361696658 81.0385604,2.32133676 81.0385604,4.72982005 L81.0385604,22.5080977 L68.2125964,22.5080977 L68.2125964,4.72982005 C68.2125964,2.32133676 66.2544987,0.361696658 63.844473,0.361696658 C61.4359897,0.361696658 59.4763496,2.32133676 59.4763496,4.72982005 L59.4763496,22.5080977 L46.6503856,22.5080977 L46.6503856,4.72982005 C46.6503856,2.32133676 44.6907455,0.361696658 42.2822622,0.361696658 C39.8722365,0.361696658 37.9141388,2.32133676 37.9141388,4.72982005 L37.9141388,22.5080977 L35.4485861,22.5080977 C28.1595116,22.5080977 22.2293059,28.4383033 22.2293059,35.7269923 L22.2293059,38.2758355 L4.36812339,38.2758355 C1.9596401,38.2758355 0,40.2354756 0,42.6439589 C0,45.0524422 1.9596401,47.0120823 4.36812339,47.0120823 L22.2293059,47.0120823 L22.2293059,59.8380463 L4.36812339,59.8380463 C1.9596401,59.8380463 0,61.7976864 0,64.2061697 C0,66.6161954 1.9596401,68.5742931 4.36812339,68.5742931 L22.2293059,68.5742931 L22.2293059,81.4002571 L4.36812339,81.4002571 C1.9596401,81.4002571 0,83.3598972 0,85.7699229 C0,88.1784062 1.9596401,90.1380463 4.36812339,90.1380463 L22.2293059,90.1380463 L22.2293059,102.96401 L4.36812339,102.96401 C1.9596401,102.96401 0,104.92365 0,107.332134 C0,109.740617 1.9596401,111.700257 4.36812339,111.700257 L22.2293059,111.700257 L22.2293059,114.248715 C22.2293059,121.537789 28.1595116,127.467609 35.4485861,127.467609 L37.9141388,127.467609 L37.9141388,145.246272 C37.9141388,147.654756 39.8737789,149.614396 42.2822622,149.614396 C44.6907455,149.614396 46.6503856,147.654756 46.6503856,145.246272 L46.6503856,127.467609 L59.4763496,127.467609 L59.4763496,145.246272 C59.4763496,147.654756 61.4359897,149.614396 63.844473,149.614396 C66.2529563,149.614396 68.2125964,147.654756 68.2125964,145.246272 L68.2125964,127.467609 L81.0385604,127.467609 L81.0385604,145.246272 C81.0385604,147.654756 82.9982005,149.614396 85.4066838,149.614396 C87.8167095,149.614396 89.7763496,147.654756 89.7763496,145.246272 L89.7763496,127.467609 L102.600771,127.467609 L102.600771,145.246272 C102.600771,147.654756 104.561954,149.614396 106.968895,149.614396 C109.37892,149.614396 111.33856,147.654756 111.33856,145.246272 L111.33856,127.467609 L113.968766,127.467609 C121.257455,127.467609 127.187661,121.537789 127.187661,114.248715 L127.187661,111.700257 L144.883033,111.700257 C147.293059,111.700257 149.252699,109.740617 149.252699,107.332134 C149.252699,104.92365 147.291902,102.96401 144.883033,102.96401 L127.187661,102.96401 L127.187661,90.1380463 L144.883033,90.1380463 C147.293059,90.1380463 149.252699,88.1784062 149.252699,85.7699229 C149.252699,83.3598972 147.291902,81.4002571 144.883033,81.4002571 L127.187661,81.4002571 L127.187661,68.5742931 L144.884576,68.5742931 L144.884576,68.5758355 Z M144.884576,62.4605398 C145.847044,62.4605398 146.630591,63.2437018 146.630591,64.2061697 C146.630591,65.1701799 145.847044,65.9533419 144.884576,65.9533419 L127.187661,65.9533419 L127.187661,62.4605398 L144.884576,62.4605398 Z M144.884576,40.898329 C145.847044,40.898329 146.630591,41.681491 146.630591,42.6439589 C146.630591,43.6064267 145.847044,44.3895887 144.884576,44.3895887 L127.187661,44.3895887 L127.187661,40.898329 L144.884576,40.898329 Z M105.224807,4.72982005 C105.224807,3.76735219 106.007969,2.98380463 106.970437,2.98380463 C107.932905,2.98380463 108.716452,3.76735219 108.716452,4.72982005 L108.716452,22.5080977 L105.224807,22.5080977 L105.224807,4.72982005 Z M83.661054,4.72982005 C83.661054,3.76735219 84.4442159,2.98380463 85.4082262,2.98380463 C86.3706941,2.98380463 87.1542416,3.76735219 87.1542416,4.72982005 L87.1542416,22.5080977 L83.661054,22.5080977 L83.661054,4.72982005 Z M62.0988432,4.72982005 C62.0988432,3.76735219 62.8820051,2.98380463 63.844473,2.98380463 C64.8069409,2.98380463 65.5920308,3.76735219 65.5920308,4.72982005 L65.5920308,22.5080977 L62.0988432,22.5080977 L62.0988432,4.72982005 Z M40.53509,4.72982005 C40.53509,3.76735219 41.3197943,2.98380463 42.2822622,2.98380463 C43.2447301,2.98380463 44.0282776,3.76735219 44.0282776,4.72982005 L44.0282776,22.5080977 L40.53509,22.5080977 L40.53509,4.72982005 Z M4.36812339,44.3895887 C3.40565553,44.3895887 2.62249357,43.6064267 2.62249357,42.6439589 C2.62249357,41.681491 3.40565553,40.898329 4.36812339,40.898329 L22.2293059,40.898329 L22.2293059,44.3895887 L4.36812339,44.3895887 Z M4.36812339,65.9533419 C3.40565553,65.9533419 2.62249357,65.1686375 2.62249357,64.2061697 C2.62249357,63.2437018 3.40565553,62.4605398 4.36812339,62.4605398 L22.2293059,62.4605398 L22.2293059,65.9533419 L4.36812339,65.9533419 Z M4.36812339,87.5155527 C3.40565553,87.5155527 2.62249357,86.7323907 2.62249357,85.7699229 C2.62249357,84.8059126 3.40565553,84.0227506 4.36812339,84.0227506 L22.2293059,84.0227506 L22.2293059,87.5155527 L4.36812339,87.5155527 Z M4.36812339,109.077763 C3.40565553,109.077763 2.62249357,108.294602 2.62249357,107.332134 C2.62249357,106.368123 3.40565553,105.584576 4.36812339,105.584576 L22.2293059,105.584576 L22.2293059,109.077763 L4.36812339,109.077763 Z M44.0282776,145.246272 C44.0282776,146.20874 43.2447301,146.991902 42.2822622,146.991902 C41.3197943,146.991902 40.5366324,146.20874 40.5366324,145.246272 L40.5366324,127.467609 L44.0282776,127.467609 L44.0282776,145.246272 Z M65.5920308,145.246272 C65.5920308,146.20874 64.8069409,146.991902 63.844473,146.991902 C62.8820051,146.991902 62.0988432,146.20874 62.0988432,145.246272 L62.0988432,127.467609 L65.5920308,127.467609 L65.5920308,145.246272 Z M87.1542416,145.246272 C87.1542416,146.20874 86.3706941,146.991902 85.4082262,146.991902 C84.4457584,146.991902 83.661054,146.20874 83.661054,145.246272 L83.661054,127.467609 L87.1542416,127.467609 L87.1542416,145.246272 Z M108.716452,145.246272 C108.716452,146.20874 107.932905,146.991902 106.970437,146.991902 C106.007969,146.991902 105.224807,146.20874 105.224807,145.246272 L105.224807,127.467609 L108.716452,127.467609 L108.716452,145.246272 Z M113.969923,124.845501 L35.4485861,124.845501 C29.605527,124.845501 24.8517995,120.091774 24.8517995,114.248715 L24.8517995,35.7269923 C24.8517995,34.683162 25.0056555,33.674036 25.2886889,32.7208226 L87.5290488,32.7208226 C88.253599,32.7208226 88.8397172,32.133162 88.8397172,31.4101542 C88.8397172,30.6856041 88.253599,30.098329 87.5290488,30.098329 L26.4755784,30.098329 C28.3523136,27.1172237 31.672365,25.1305913 35.4485861,25.1305913 L113.969923,25.1305913 C119.812982,25.1305913 124.56671,29.8843188 124.56671,35.7269923 L124.56671,114.248715 C124.56671,114.645116 124.542416,115.034961 124.500386,115.420566 L63.392545,115.420566 C62.6695373,115.420566 62.0822622,116.006684 62.0822622,116.731234 C62.0822622,117.455784 62.6695373,118.043059 63.392545,118.043059 L123.861825,118.043059 C122.331362,122.01671 118.475321,124.845501 113.969923,124.845501 L113.969923,124.845501 Z M144.884576,105.584576 C145.847044,105.584576 146.630591,106.369666 146.630591,107.332134 C146.630591,108.294602 145.847044,109.077763 144.884576,109.077763 L127.187661,109.077763 L127.187661,105.584576 L144.884576,105.584576 Z M144.884576,84.0227506 C145.847044,84.0227506 146.630591,84.8059126 146.630591,85.7699229 C146.630591,86.7323907 145.847044,87.5155527 144.884576,87.5155527 L127.187661,87.5155527 L127.187661,84.0227506 L144.884576,84.0227506 Z" id="Fill-3" fill="#01A9F4" sketch:type="MSShapeGroup" mask="url(#mask-2)"></path>
                <path d="M81.7361183,66.3917738 L89.4601542,66.3917738 C90.1847044,66.3917738 90.7719794,65.8041131 90.7719794,65.0799486 C90.7719794,64.3569409 90.1847044,63.7692802 89.4601542,63.7692802 L81.7361183,63.7692802 C81.0131105,63.7692802 80.4254499,64.3569409 80.4254499,65.0799486 C80.4254499,65.8041131 81.0131105,66.3917738 81.7361183,66.3917738 L81.7361183,66.3917738 Z" id="Fill-5" fill="#01A9F4" sketch:type="MSShapeGroup" mask="url(#mask-2)"></path>
                <path d="M94.7699229,32.7208226 L103.943059,32.7208226 C104.666067,32.7208226 105.253342,32.133162 105.253342,31.4101542 C105.253342,30.6856041 104.666067,30.098329 103.943059,30.098329 L94.7699229,30.098329 C94.0469152,30.098329 93.4592545,30.6856041 93.4592545,31.4101542 C93.4592545,32.1347044 94.0469152,32.7208226 94.7699229,32.7208226 L94.7699229,32.7208226 Z" id="Fill-6" fill="#01A9F4" sketch:type="MSShapeGroup" mask="url(#mask-2)"></path>
            </g>
        </g>
    </g>
</svg>