<?xml version="1.0" encoding="UTF-8" standalone="no"?>
<svg width="185px" height="149px" viewBox="0 0 185 149" version="1.1" xmlns="http://www.w3.org/2000/svg" xmlns:xlink="http://www.w3.org/1999/xlink" xmlns:sketch="http://www.bohemiancoding.com/sketch/ns">
    <!-- Generator: Sketch 3.3.1 (12002) - http://www.bohemiancoding.com/sketch -->
    <title>networking7</title>
    <desc>Created with Sketch.</desc>
    <defs></defs>
    <g id="Pieces" stroke="none" stroke-width="1" fill="none" fill-rule="evenodd" sketch:type="MSPage">
        <g id="Desktop-HD" sketch:type="MSArtboardGroup" transform="translate(-373.000000, -4409.000000)" fill="#01A9F4">
            <g id="networking7" sketch:type="MSLayerGroup" transform="translate(373.000000, 4409.000000)">
                <path d="M178.660279,107.785153 L164.079221,107.785153 L164.079221,91.4030663 C164.079221,90.5035094 163.350096,89.7762996 162.450539,89.7762996 L93.9903751,89.7762996 L93.9903751,61.6257673 L117.257735,61.6257673 C120.266631,61.6257673 122.71492,59.1774786 122.71492,56.1666676 L122.71492,6.3774572 C122.71492,3.36856116 120.266631,0.920751231 117.257735,0.920751231 L67.4685245,0.920751231 C64.4596284,0.920751231 62.0099035,3.36856116 62.0099035,6.3774572 L62.0099035,56.1666676 C62.0099035,59.1774786 64.4596284,61.6257673 67.4685245,61.6257673 L90.734448,61.6257673 L90.734448,89.7762996 L22.2742837,89.7762996 C21.3747267,89.7762996 20.6470382,90.5035094 20.6470382,91.4030663 L20.6470382,107.785153 L6.06406574,107.785153 C3.0551697,107.785153 0.607359771,110.232963 0.607359771,113.241859 L0.607359771,143.490719 C0.607359771,146.499615 3.0551697,148.947425 6.06406574,148.947425 L38.4840229,148.947425 C41.4929189,148.947425 43.9431225,146.499615 43.9431225,143.490719 L43.9431225,113.241859 C43.9431225,110.232963 41.4929189,107.785153 38.4840229,107.785153 L23.9029653,107.785153 L23.9029653,93.029833 L90.734448,93.029833 L90.734448,107.785153 L76.1533905,107.785153 C73.1444945,107.785153 70.6942908,110.232963 70.6942908,113.241859 L70.6942908,143.490719 C70.6942908,146.499615 73.1444945,148.947425 76.1533905,148.947425 L108.573348,148.947425 C111.582244,148.947425 114.030054,146.499615 114.030054,143.490719 L114.030054,113.241859 C114.030054,110.232963 111.582244,107.785153 108.573348,107.785153 L93.9903751,107.785153 L93.9903751,93.029833 L160.823294,93.029833 L160.823294,107.785153 L146.240322,107.785153 C143.231426,107.785153 140.783616,110.232963 140.783616,113.241859 L140.783616,143.490719 C140.783616,146.499615 143.231426,148.947425 146.240322,148.947425 L178.660279,148.947425 C181.669175,148.947425 184.1189,146.499615 184.1189,143.490719 L184.1189,113.241859 C184.1189,110.232963 181.669175,107.785153 178.660279,107.785153 L178.660279,107.785153 Z M65.2658307,56.1666676 L65.2658307,18.3685183 L106.547788,18.3685183 C107.447345,18.3685183 108.175034,17.6413086 108.175034,16.7417516 C108.175034,15.8421946 107.447345,15.1130699 106.547788,15.1130699 L65.2658307,15.1130699 L65.2658307,6.3774572 C65.2658307,5.16384519 66.2529975,4.17667835 67.4685245,4.17667835 L117.257735,4.17667835 C118.471347,4.17667835 119.458992,5.16384519 119.458992,6.3774572 L119.458992,46.133663 L84.14408,46.133663 C83.244523,46.133663 82.5153984,46.8632664 82.5153984,47.7628234 C82.5153984,48.6623804 83.244523,49.3895901 84.14408,49.3895901 L119.458992,49.3895901 L119.458992,56.1666676 C119.458992,57.3821946 118.471347,58.3698402 117.257735,58.3698402 L67.4685245,58.3698402 C66.2529975,58.3698402 65.2658307,57.3821946 65.2658307,56.1666676 L65.2658307,56.1666676 Z M40.6871954,113.241859 L40.6871954,127.133048 L15.7830154,127.133048 C14.8834584,127.133048 14.1543337,127.862173 14.1543337,128.76173 C14.1543337,129.661287 14.8834584,130.388976 15.7830154,130.388976 L40.6871954,130.388976 L40.6871954,143.490719 C40.6871954,144.704331 39.6995498,145.693413 38.4840229,145.693413 L6.06406574,145.693413 C4.85045373,145.693413 3.86328689,144.704331 3.86328689,143.490719 L3.86328689,140.73029 L24.9743909,140.73029 C25.8720329,140.73029 26.6016363,140.001166 26.6016363,139.101609 C26.6016363,138.202052 25.8720329,137.474363 24.9743909,137.474363 L3.86328689,137.474363 L3.86328689,113.241859 C3.86328689,112.026332 4.85045373,111.039165 6.06406574,111.039165 L38.4840229,111.039165 C39.6995498,111.039165 40.6871954,112.026332 40.6871954,113.241859 L40.6871954,113.241859 Z M110.774126,113.241859 L110.774126,143.490719 C110.774126,144.704331 109.78696,145.691498 108.573348,145.691498 L76.1533905,145.691498 C74.9378635,145.691498 73.9502179,144.704331 73.9502179,143.490719 L73.9502179,137.855921 L101.951383,137.855921 C102.850461,137.855921 103.580064,137.128711 103.580064,136.229154 C103.580064,135.329597 102.850461,134.601909 101.951383,134.601909 L73.9502179,134.601909 L73.9502179,126.94203 L88.7390497,126.94203 C89.6386066,126.94203 90.3658164,126.212906 90.3658164,125.313349 C90.3658164,124.415707 89.6386066,123.686582 88.7390497,123.686582 L73.9502179,123.686582 L73.9502179,113.241859 C73.9502179,112.026332 74.9378635,111.039165 76.1533905,111.039165 L108.573348,111.039165 C109.78696,111.039165 110.774126,112.026332 110.774126,113.241859 L110.774126,113.241859 Z M178.660279,145.691498 L146.240322,145.691498 C145.02671,145.691498 144.039543,144.704331 144.039543,143.490719 L144.039543,113.241859 C144.039543,112.026332 145.02671,111.039165 146.240322,111.039165 L178.660279,111.039165 C179.875806,111.039165 180.863451,112.026332 180.863451,113.241859 L180.863451,117.941673 L155.375684,117.941673 C154.476127,117.941673 153.748917,118.670798 153.748917,119.570355 C153.748917,120.467997 154.476127,121.197121 155.375684,121.197121 L180.863451,121.197121 L180.863451,127.133048 L165.717478,127.133048 C164.817921,127.133048 164.088317,127.862173 164.088317,128.76173 C164.088317,129.659372 164.817921,130.388976 165.717478,130.388976 L180.863451,130.388976 L180.863451,143.490719 C180.863451,144.704331 179.875806,145.691498 178.660279,145.691498 L178.660279,145.691498 Z" sketch:type="MSShapeGroup"></path>
            </g>
        </g>
    </g>
</svg>