<?xml version="1.0" encoding="UTF-8" standalone="no"?>
<svg width="137px" height="150px" viewBox="0 0 137 150" version="1.1" xmlns="http://www.w3.org/2000/svg" xmlns:xlink="http://www.w3.org/1999/xlink" xmlns:sketch="http://www.bohemiancoding.com/sketch/ns">
    <!-- Generator: Sketch 3.3.1 (12002) - http://www.bohemiancoding.com/sketch -->
    <title>Group</title>
    <desc>Created with Sketch.</desc>
    <defs></defs>
    <g id="Pieces" stroke="none" stroke-width="1" fill="none" fill-rule="evenodd" sketch:type="MSPage">
        <g id="Desktop-HD" sketch:type="MSArtboardGroup" transform="translate(-848.000000, -4387.000000)" fill="#01A9F4">
            <g id="Group" sketch:type="MSLayerGroup" transform="translate(848.000000, 4387.000000)">
                <path d="M123.267315,60.146542 L123.267315,55.1347996 C123.267315,25.0435117 98.7851177,0.561314753 68.6919359,0.561314753 C38.600648,0.561314753 14.118451,25.0435117 14.118451,55.1347996 L14.118451,60.146542 C6.63587528,60.7783602 0.738148009,67.0666178 0.738148009,74.7105572 L0.738148009,135.214724 C0.738148009,143.277224 7.29723892,149.836315 15.3601177,149.836315 L122.025648,149.836315 C130.088148,149.836315 136.647618,143.277224 136.647618,135.214724 L136.647618,74.7105572 C136.647618,67.0666178 130.749512,60.7783602 123.267315,60.146542 L123.267315,60.146542 Z M68.6919359,3.13745112 C97.3646632,3.13745112 120.691178,26.4639663 120.691178,55.1347996 L120.691178,60.0889663 L106.100269,60.0889663 L106.100269,55.1347996 C106.100269,34.5086632 89.3195874,17.7283602 68.693451,17.7283602 C48.0657995,17.7283602 31.2854965,34.5086632 31.2854965,55.1347996 L31.2854965,60.0889663 L16.6945874,60.0889663 L16.6945874,55.1347996 C16.6945874,26.4639663 40.0211026,3.13745112 68.6919359,3.13745112 L68.6919359,3.13745112 Z M103.524133,60.0889663 L33.8612541,60.0889663 L33.8612541,55.1347996 C33.8612541,35.9291178 49.4862541,20.3041178 68.6919359,20.3041178 C87.8979965,20.3041178 103.524133,35.9291178 103.524133,55.1347996 L103.524133,60.0889663 Z M122.025648,147.260178 L15.3601177,147.260178 C8.71769346,147.260178 3.31428437,141.856769 3.31428437,135.214724 L3.31428437,82.8147238 L126.300269,82.8147238 C127.012012,82.8147238 127.589284,82.2374511 127.589284,81.5257087 C127.589284,80.8154814 127.012012,80.2385875 126.300269,80.2385875 L3.31428437,80.2385875 L3.31428437,74.7105572 C3.31428437,74.2222996 3.34686013,73.7427541 3.40292074,73.2692693 L37.2142844,73.2692693 C37.9260268,73.2692693 38.5029207,72.6938905 38.5029207,71.9821481 C38.5029207,71.2704057 37.9260268,70.6935117 37.2142844,70.6935117 L4.00519346,70.6935117 C5.66239043,66.0207844 10.1248904,62.6647238 15.3601177,62.6647238 L122.025648,62.6647238 C128.667693,62.6647238 134.071481,68.0685117 134.071481,74.7105572 L134.071481,130.463587 L36.7601177,130.463587 C36.0483753,130.463587 35.4726177,131.040481 35.4726177,131.750709 C35.4726177,132.462451 36.0483753,133.039345 36.7601177,133.039345 L134.071481,133.039345 L134.071481,135.214724 C134.071481,136.160178 133.958981,137.080254 133.751784,137.962072 L102.212012,137.962072 C101.500269,137.962072 100.922996,138.539345 100.922996,139.251087 C100.922996,139.96283 101.500269,140.538209 102.212012,140.538209 L132.827163,140.538209 C130.857845,144.516997 126.757466,147.260178 122.025648,147.260178 L122.025648,147.260178 Z" id="Fill-1" sketch:type="MSShapeGroup"></path>
                <path d="M123.545345,107.761315 C123.545345,101.938966 118.807466,97.2026026 112.986633,97.2026026 L24.3991329,97.2026026 C18.5767844,97.2026026 13.8404207,101.938966 13.8404207,107.761315 C13.8404207,113.582148 18.5767844,118.320027 24.3991329,118.320027 L112.986633,118.320027 C118.808981,118.320027 123.545345,113.582148 123.545345,107.761315 L123.545345,107.761315 Z M16.4165571,107.761315 C16.4165571,103.359421 19.9972389,99.7772238 24.3991329,99.7772238 L112.986633,99.7772238 C117.388527,99.7772238 120.969209,103.359421 120.969209,107.761315 C120.969209,112.163209 117.388527,115.743891 112.986633,115.743891 L24.3991329,115.743891 C19.9972389,115.743891 16.4165571,112.163209 16.4165571,107.761315 L16.4165571,107.761315 Z" id="Fill-2" sketch:type="MSShapeGroup"></path>
                <path d="M29.450648,102.049951 C26.4010268,102.049951 23.9195874,104.531391 23.9195874,107.580633 C23.9195874,110.630254 26.4010268,113.111694 29.450648,113.111694 C32.5002692,113.111694 34.9798147,110.630254 34.9798147,107.580633 C34.9798147,104.531391 32.5002692,102.049951 29.450648,102.049951 L29.450648,102.049951 Z M29.450648,110.535557 C27.8214813,110.535557 26.4957238,109.2098 26.4957238,107.580633 C26.4957238,105.951845 27.8214813,104.626087 29.450648,104.626087 C31.0798147,104.626087 32.4055723,105.951845 32.4055723,107.580633 C32.4055723,109.2098 31.0798147,110.535557 29.450648,110.535557 L29.450648,110.535557 Z" id="Fill-3" sketch:type="MSShapeGroup"></path>
                <path d="M45.1464813,102.049951 C42.0972389,102.049951 39.6173147,104.531391 39.6173147,107.580633 C39.6173147,110.630254 42.0972389,113.111694 45.1464813,113.111694 C48.1961026,113.111694 50.6775419,110.630254 50.6775419,107.580633 C50.6775419,104.531391 48.1961026,102.049951 45.1464813,102.049951 L45.1464813,102.049951 Z M45.1464813,110.535557 C43.5176935,110.535557 42.1919359,109.2098 42.1919359,107.580633 C42.1919359,105.951845 43.5176935,104.626087 45.1464813,104.626087 C46.775648,104.626087 48.1014056,105.951845 48.1014056,107.580633 C48.1014056,109.2098 46.775648,110.535557 45.1464813,110.535557 L45.1464813,110.535557 Z" id="Fill-4" sketch:type="MSShapeGroup"></path>
                <path d="M60.8442086,102.049951 C57.7945874,102.049951 55.313148,104.531391 55.313148,107.580633 C55.313148,110.630254 57.7945874,113.111694 60.8442086,113.111694 C63.893451,113.111694 66.3733753,110.630254 66.3733753,107.580633 C66.3733753,104.531391 63.893451,102.049951 60.8442086,102.049951 L60.8442086,102.049951 Z M60.8442086,110.535557 C59.2150419,110.535557 57.8892844,109.2098 57.8892844,107.580633 C57.8892844,105.951845 59.2150419,104.626087 60.8442086,104.626087 C62.4729965,104.626087 63.7987541,105.951845 63.7987541,107.580633 C63.7987541,109.2098 62.4729965,110.535557 60.8442086,110.535557 L60.8442086,110.535557 Z" id="Fill-5" sketch:type="MSShapeGroup"></path>
                <path d="M76.5415571,102.049951 C73.4919359,102.049951 71.0108753,104.531391 71.0108753,107.580633 C71.0108753,110.630254 73.4919359,113.111694 76.5415571,113.111694 C79.5911783,113.111694 82.0711026,110.630254 82.0711026,107.580633 C82.0711026,104.531391 79.5911783,102.049951 76.5415571,102.049951 L76.5415571,102.049951 Z M76.5415571,110.535557 C74.9123904,110.535557 73.5866329,109.2098 73.5866329,107.580633 C73.5866329,105.951845 74.9123904,104.626087 76.5415571,104.626087 C78.1707238,104.626087 79.4964813,105.951845 79.4964813,107.580633 C79.4964813,109.2098 78.1707238,110.535557 76.5415571,110.535557 L76.5415571,110.535557 Z" id="Fill-6" sketch:type="MSShapeGroup"></path>
                <path d="M92.2377692,102.049951 C89.188148,102.049951 86.7082238,104.531391 86.7082238,107.580633 C86.7082238,110.630254 89.188148,113.111694 92.2377692,113.111694 C95.2870116,113.111694 97.768451,110.630254 97.768451,107.580633 C97.768451,104.531391 95.2870116,102.049951 92.2377692,102.049951 L92.2377692,102.049951 Z M92.2377692,110.535557 C90.6086026,110.535557 89.2843601,109.2098 89.2843601,107.580633 C89.2843601,105.951845 90.6086026,104.626087 92.2377692,104.626087 C93.8665571,104.626087 95.1923147,105.951845 95.1923147,107.580633 C95.1923147,109.2098 93.8665571,110.535557 92.2377692,110.535557 L92.2377692,110.535557 Z" id="Fill-7" sketch:type="MSShapeGroup"></path>
                <path d="M107.935118,102.049951 C104.885496,102.049951 102.404057,104.531391 102.404057,107.580633 C102.404057,110.630254 104.885496,113.111694 107.935118,113.111694 C110.984739,113.111694 113.466178,110.630254 113.466178,107.580633 C113.466178,104.531391 110.984739,102.049951 107.935118,102.049951 L107.935118,102.049951 Z M107.935118,110.535557 C106.305951,110.535557 104.980193,109.2098 104.980193,107.580633 C104.980193,105.951845 106.305951,104.626087 107.935118,104.626087 C109.564284,104.626087 110.890042,105.951845 110.890042,107.580633 C110.890042,109.2098 109.564284,110.535557 107.935118,110.535557 L107.935118,110.535557 Z" id="Fill-8" sketch:type="MSShapeGroup"></path>
                <path d="M17.6695874,130.463587 L6.30746619,130.463587 C5.59572377,130.463587 5.01882983,131.040481 5.01882983,131.752224 C5.01882983,132.463966 5.59572377,133.039345 6.30746619,133.039345 L17.6695874,133.039345 C18.3813298,133.039345 18.9586026,132.463966 18.9586026,131.752224 C18.9586026,131.040481 18.3813298,130.463587 17.6695874,130.463587 L17.6695874,130.463587 Z" id="Fill-9" sketch:type="MSShapeGroup"></path>
            </g>
        </g>
    </g>
</svg>