<?xml version="1.0" encoding="UTF-8" standalone="no"?>
<svg width="177px" height="150px" viewBox="0 0 177 150" version="1.1" xmlns="http://www.w3.org/2000/svg" xmlns:xlink="http://www.w3.org/1999/xlink" xmlns:sketch="http://www.bohemiancoding.com/sketch/ns">
    <!-- Generator: Sketch 3.3.1 (12002) - http://www.bohemiancoding.com/sketch -->
    <title>Group</title>
    <desc>Created with Sketch.</desc>
    <defs>
        <path id="path-1" d="M0.535253156,0.984989468 L179.801325,0.984989468 L179.801325,149.093003 L0.535253156,149.093003 L0.535253156,0.984989468 Z"></path>
    </defs>
    <g id="Pieces" stroke="none" stroke-width="1" fill="none" fill-rule="evenodd" sketch:type="MSPage">
        <g id="Desktop-HD" sketch:type="MSArtboardGroup" transform="translate(-103.000000, -4390.000000)">
            <g id="Group" sketch:type="MSLayerGroup" transform="translate(103.000000, 4390.000000)">
                <mask id="mask-2" sketch:name="Clip 2" fill="white">
                    <use xlink:href="#path-1"></use>
                </mask>
                <g id="Clip-2"></g>
                <path d="M144.185988,144.417345 L144.185988,136.875457 C144.185988,136.442598 143.836971,136.091631 143.402162,136.091631 C142.975152,136.091631 142.626135,136.442598 142.626135,136.875457 L142.626135,144.417345 L128.587461,144.417345 L128.587461,136.875457 C128.587461,136.442598 128.238444,136.091631 127.803635,136.091631 C127.376625,136.091631 127.027608,136.442598 127.027608,136.875457 L127.027608,144.417345 L112.988934,144.417345 L112.988934,136.875457 C112.988934,136.442598 112.639917,136.091631 112.205108,136.091631 C111.778098,136.091631 111.429081,136.442598 111.429081,136.875457 L111.429081,144.417345 L97.3904068,144.417345 L97.3904068,136.875457 C97.3904068,136.442598 97.0413898,136.091631 96.6065808,136.091631 C96.1795712,136.091631 95.8305541,136.442598 95.8305541,136.875457 L95.8305541,144.417345 L81.7918798,144.417345 L81.7918798,136.875457 C81.7918798,136.442598 81.4428628,136.091631 81.0080539,136.091631 C80.5810442,136.091631 80.2320271,136.442598 80.2320271,136.875457 L80.2320271,144.417345 L66.1933529,144.417345 L66.1933529,136.875457 C66.1933529,136.442598 65.8443358,136.091631 65.4095269,136.091631 C64.9825172,136.091631 64.6335002,136.442598 64.6335002,136.875457 L64.6335002,144.417345 L50.5948259,144.417345 L50.5948259,136.875457 C50.5948259,136.442598 50.2458088,136.091631 49.8109999,136.091631 C49.3839902,136.091631 49.0349732,136.442598 49.0349732,136.875457 L49.0349732,144.417345 L34.9962989,144.417345 L34.9962989,136.875457 C34.9962989,136.442598 34.6472819,136.091631 34.2124729,136.091631 C33.7854632,136.091631 33.4364462,136.442598 33.4364462,136.875457 L33.4364462,144.417345 L5.09392267,144.417345 L5.09392267,126.738364 L11.3625807,126.738364 C11.7895904,126.738364 12.1405572,126.387397 12.1405572,125.954538 C12.1405572,125.527529 11.7895904,125.176562 11.3625807,125.176562 L5.09392267,125.176562 L5.09392267,111.139837 L11.3625807,111.139837 C11.7895904,111.139837 12.1405572,110.78887 12.1405572,110.356011 C12.1405572,109.929002 11.7895904,109.578035 11.3625807,109.578035 L5.09392267,109.578035 L5.09392267,95.5413102 L11.3625807,95.5413102 C11.7895904,95.5413102 12.1405572,95.1903434 12.1405572,94.7574842 C12.1405572,94.3304746 11.7895904,93.9795077 11.3625807,93.9795077 L5.09392267,93.9795077 L5.09392267,79.9427832 L11.3625807,79.9427832 C11.7895904,79.9427832 12.1405572,79.5918164 12.1405572,79.1589573 C12.1405572,78.7319476 11.7895904,78.3809807 11.3625807,78.3809807 L5.09392267,78.3809807 L5.09392267,64.3442563 L11.3625807,64.3442563 C11.7895904,64.3442563 12.1405572,63.9932894 12.1405572,63.5604303 C12.1405572,63.1334206 11.7895904,62.7824537 11.3625807,62.7824537 L5.09392267,62.7824537 L5.09392267,48.7457293 L11.3625807,48.7457293 C11.7895904,48.7457293 12.1405572,48.3947624 12.1405572,47.9619033 C12.1405572,47.5348936 11.7895904,47.1839268 11.3625807,47.1839268 L5.09392267,47.1839268 L5.09392267,33.1472023 L11.3625807,33.1472023 C11.7895904,33.1472023 12.1405572,32.7962354 12.1405572,32.3633763 C12.1405572,31.9363666 11.7895904,31.5853998 11.3625807,31.5853998 L5.09392267,31.5853998 L5.09392267,17.5486753 L11.3625807,17.5486753 C11.7895904,17.5486753 12.1405572,17.1977085 12.1405572,16.7648493 C12.1405572,16.3378397 11.7895904,15.9868728 11.3625807,15.9868728 L5.09392267,15.9868728 L5.09392267,3.24482606 C5.09392267,1.95794759 4.05077117,0.906996833 2.75609344,0.906996833 C1.46921496,0.906996833 0.418264204,1.95794759 0.418264204,3.24482606 L0.418264204,146.755174 C0.418264204,148.042052 1.46921496,149.093003 2.75609344,149.093003 L155.292139,149.093003 C156.586817,149.093003 157.629968,148.042052 157.629968,146.755174 C157.629968,145.460496 156.586817,144.417345 155.292139,144.417345 L144.185988,144.417345 Z" id="Fill-1" fill="#01A9F4" sketch:type="MSShapeGroup" mask="url(#mask-2)"></path>
                <path d="M32.7691795,78.4768212 L36.2460007,78.4768212 L36.2460007,127.873157 L32.7691795,127.873157 L32.7691795,78.4768212 Z" id="Fill-4" fill="#01A9F4" sketch:type="MSShapeGroup" mask="url(#mask-2)"></path>
                <path d="M63.5638815,36.7549669 L67.0407027,36.7549669 L67.0407027,127.873157 L63.5638815,127.873157 L63.5638815,36.7549669 Z" id="Fill-4-Copy-2" fill="#01A9F4" sketch:type="MSShapeGroup" mask="url(#mask-2)"></path>
                <path d="M94.3585835,98.3443709 L97.8354047,100.20588 L97.8354047,127.873157 L94.3585835,127.873157 L94.3585835,98.3443709 Z" id="Fill-4-Copy-4" fill="#01A9F4" sketch:type="MSShapeGroup" mask="url(#mask-2)"></path>
                <path d="M126.146663,100.20588 L129.623484,98.3443709 L129.623484,127.873157 L126.146663,127.873157 L126.146663,100.20588 Z" id="Fill-4-Copy-8" fill="#01A9F4" sketch:type="MSShapeGroup" mask="url(#mask-2)"></path>
                <path d="M126.146663,2.48344371 L129.623484,2.48344371 L129.623484,32.0122299 L126.146663,30.1507209 L126.146663,2.48344371 Z" id="Fill-4-Copy-9" fill="#01A9F4" sketch:type="MSShapeGroup" mask="url(#mask-2)"></path>
                <path d="M94.3585835,11.9961947 L97.8354047,11.9961947 L97.8354047,30.2093512 L94.3585835,32.0122299 L94.3585835,11.9961947 Z" id="Fill-4-Copy-5" fill="#01A9F4" sketch:type="MSShapeGroup" mask="url(#mask-2)"></path>
                <path d="M136.385573,86.769972 C150.247373,72.7649015 147.429382,53.4048834 135.660046,41.6337563 C122.904262,28.8779722 102.147692,28.8779722 89.3847465,41.6337563 C76.6289624,54.3895404 76.6289624,75.1461103 89.3847465,87.9090555 C101.154083,99.6783922 119.715763,100.559213 132.541368,90.6231283 L172.178289,130.841892 C173.787756,132.449568 174.416608,132.449568 176.024284,130.841892 C177.639122,129.232425 176.645744,128.603573 175.030907,126.995897 L136.385573,86.769972 Z M132.539869,84.7894623 C121.756598,95.5727332 104.205448,95.5727332 93.4221771,84.7894623 C82.6308106,73.9980959 82.6389062,56.4469463 93.4221771,45.6636754 C104.205448,34.8804045 121.756598,34.8804045 132.539869,45.6636754 C143.331235,56.4469463 143.331235,73.9980959 132.539869,84.7894623 L132.539869,84.7894623 Z" id="Fill-8" fill="#01A9F4" sketch:type="MSShapeGroup" mask="url(#mask-2)"></path>
                <path d="M114.708104,62.2647753 C110.966407,60.7197589 109.890445,59.7816493 109.890445,58.0826684 C109.890445,56.725632 110.875102,55.1466002 113.673319,55.1466002 C116.303248,55.1466002 117.959262,56.0900806 118.666425,56.4964754 C118.847244,56.600312 119.065659,56.6146343 119.267961,56.5519743 C119.463102,56.474992 119.617066,56.3281886 119.694049,56.1312572 L120.757478,53.320509 C120.882798,52.9928867 120.750317,52.6276685 120.449549,52.4540108 C118.924226,51.5660292 117.232406,51.0540076 115.280995,50.9072042 L115.280995,47.4609046 C115.280995,47.0688321 114.960534,46.7465807 114.5613,46.7465807 L111.931371,46.7465807 C111.532137,46.7465807 111.218837,47.0688321 111.218837,47.4609046 L111.218837,51.1596344 C107.294531,52.0261326 104.806035,54.8941699 104.806035,58.5928997 C104.806035,63.0614523 108.386606,65.0826846 112.253622,66.6080078 C115.343655,67.8594174 116.609387,69.1323104 116.609387,70.992417 C116.609387,73.0566162 114.862068,74.4405068 112.275106,74.4405068 C110.266405,74.4405068 108.182513,73.8174875 106.553353,72.7343648 C106.372534,72.6144156 106.141588,72.5875614 105.932124,72.6502213 C105.720871,72.7200425 105.554374,72.8811682 105.484553,73.0906316 L104.4623,75.9371855 C104.351302,76.2379535 104.455139,76.5727368 104.721891,76.755346 C106.211409,77.8187755 108.581747,78.5671149 110.918069,78.7264503 L110.918069,82.3356658 C110.918069,82.7277383 111.23853,83.0499897 111.630603,83.0499897 L114.30887,83.0499897 C114.708104,83.0499897 115.023194,82.7277383 115.023194,82.3356658 L115.023194,78.5098257 C119.065659,77.6093121 121.736764,74.5318114 121.736764,70.6988102 C121.736764,66.790617 119.631389,64.2716853 114.708104,62.2647753 L114.708104,62.2647753 Z" id="Fill-9" fill="#01A9F4" sketch:type="MSShapeGroup" mask="url(#mask-2)"></path>
            </g>
        </g>
    </g>
</svg>