<?xml version="1.0" encoding="UTF-8" standalone="no"?>
<svg width="138px" height="149px" viewBox="0 0 138 149" version="1.1" xmlns="http://www.w3.org/2000/svg" xmlns:xlink="http://www.w3.org/1999/xlink" xmlns:sketch="http://www.bohemiancoding.com/sketch/ns">
    <!-- Generator: Sketch 3.3.1 (12002) - http://www.bohemiancoding.com/sketch -->
    <title>Group</title>
    <desc>Created with Sketch.</desc>
    <defs></defs>
    <g id="Pieces" stroke="none" stroke-width="1" fill="none" fill-rule="evenodd" sketch:type="MSPage">
        <g id="Desktop-HD" sketch:type="MSArtboardGroup" transform="translate(-629.000000, -4428.000000)" fill="#01A9F4">
            <g id="Group" sketch:type="MSLayerGroup" transform="translate(629.000000, 4427.000000)">
                <path d="M133.628749,42.4223672 C135.868976,42.4223672 137.691662,40.5996816 137.691662,38.3594546 L137.691662,5.52544296 C137.691662,3.28521594 135.868976,1.46253038 133.628749,1.46253038 L4.06291258,1.46253038 C1.82268556,1.46253038 0,3.28521594 0,5.52544296 L0,38.3594546 C0,40.5996816 1.82268556,42.4223672 4.06291258,42.4223672 L9.19044266,42.4223672 L9.19044266,48.9935488 L4.06291258,48.9935488 C1.82268556,48.9935488 0,50.8162343 0,53.0564613 L0,85.8908505 C0,88.1307 1.82268556,89.9533855 4.06291258,89.9533855 L9.19044266,89.9533855 L9.19044266,96.5249447 L4.06291258,96.5249447 C1.82268556,96.5249447 0,98.3476302 0,100.58748 L0,133.421869 C0,135.662096 1.82268556,137.484781 4.06291258,137.484781 L9.19044266,137.484781 L9.19044266,148.208726 C9.19044266,148.918094 9.76541161,149.493063 10.4747791,149.493063 L127.216883,149.493063 C127.925873,149.493063 128.499709,148.918094 128.499709,148.208726 L128.499709,137.484781 L133.628749,137.484781 C135.868976,137.484781 137.691662,135.662096 137.691662,133.421869 L137.691662,100.58748 C137.691662,98.3476302 135.868976,96.5249447 133.628749,96.5249447 L128.499709,96.5249447 L128.499709,89.9533855 L133.628749,89.9533855 C135.868976,89.9533855 137.691662,88.1307 137.691662,85.8908505 L137.691662,53.0564613 C137.691662,50.8162343 135.868976,48.9935488 133.628749,48.9935488 L128.499709,48.9935488 L128.499709,42.4223672 L133.628749,42.4223672 Z M2.56754028,38.3594546 L2.56754028,30.7485721 L37.193658,30.7485721 C37.902648,30.7485721 38.4764843,30.1736031 38.4764843,29.4657457 C38.4764843,28.7563783 37.902648,28.1810318 37.193658,28.1810318 L2.56754028,28.1810318 L2.56754028,16.5370611 L84.5861251,16.5370611 C85.2939825,16.5370611 85.8689514,15.9632247 85.8689514,15.2538572 C85.8689514,14.5444898 85.2939825,13.9710309 84.5861251,13.9710309 L2.56754028,13.9710309 L2.56754028,5.52544296 C2.56754028,4.70093069 3.23840031,4.03007066 4.06442268,4.03007066 L133.628749,4.03007066 C134.453262,4.03007066 135.125632,4.70093069 135.125632,5.52544296 L135.125632,38.3594546 C135.125632,39.185477 134.453262,39.856337 133.628749,39.856337 L4.06291258,39.856337 C3.23840031,39.856337 2.56754028,39.185477 2.56754028,38.3594546 L2.56754028,38.3594546 Z M11.7579829,137.484781 L125.933679,137.484781 L125.933679,146.9259 L11.7579829,146.9259 L11.7579829,137.484781 Z M135.124122,100.58748 L135.124122,133.421869 C135.124122,134.246381 134.453262,134.917241 133.628749,134.917241 L4.06291258,134.917241 C3.23840031,134.917241 2.56754028,134.246381 2.56754028,133.421869 L2.56754028,128.595225 L95.8114218,128.595225 C96.5207893,128.595225 97.0957582,128.019879 97.0957582,127.312022 C97.0957582,126.603032 96.5207893,126.027685 95.8114218,126.027685 L2.56754028,126.027685 L2.56754028,119.838558 L12.4197824,119.838558 C13.1291499,119.838558 13.7044963,119.264721 13.7044963,118.555354 C13.7044963,117.845986 13.1291499,117.272528 12.4197824,117.272528 L2.56754028,117.272528 L2.56754028,100.58748 C2.56754028,99.763345 3.23840031,99.0921074 4.06442268,99.0921074 L133.628749,99.0921074 C134.453262,99.0909749 135.124122,99.7618349 135.124122,100.58748 L135.124122,100.58748 Z M11.7579829,89.9533855 L125.933679,89.9533855 L125.933679,96.5249447 L11.7579829,96.5249447 L11.7579829,89.9533855 Z M135.124122,53.0564613 L135.124122,85.8908505 C135.124122,86.7149852 134.453262,87.3862228 133.628749,87.3862228 L4.06291258,87.3862228 C3.23840031,87.3862228 2.56754028,86.7149852 2.56754028,85.8908505 L2.56754028,63.4104328 L37.193658,63.4104328 C37.9015154,63.4104328 38.4764843,62.8350863 38.4764843,62.1272289 C38.4764843,61.4178614 37.9015154,60.8428925 37.193658,60.8428925 L2.56754028,60.8428925 L2.56754028,53.0564613 C2.56754028,52.2319491 3.23840031,51.561089 4.06442268,51.561089 L133.628749,51.561089 C134.453262,51.561089 135.124122,52.2319491 135.124122,53.0564613 L135.124122,53.0564613 Z M11.7579829,42.4223672 L125.933679,42.4223672 L125.933679,48.9935488 L11.7579829,48.9935488 L11.7579829,42.4223672 Z" id="Fill-1" sketch:type="MSShapeGroup"></path>
                <path d="M120.720828,29.4804692 C124.876234,29.4804692 128.257716,26.0989873 128.257716,21.9432038 C128.257716,17.7859103 124.876234,14.4044284 120.720828,14.4044284 C116.563535,14.4044284 113.182053,17.7859103 113.182053,21.9432038 C113.182053,26.0989873 116.563535,29.4804692 120.720828,29.4804692 L120.720828,29.4804692 Z M120.720828,16.9719687 C123.46052,16.9719687 125.690554,19.201625 125.690554,21.9432038 C125.690554,24.6832725 123.46052,26.9129289 120.720828,26.9129289 C117.97925,26.9129289 115.749593,24.6832725 115.749593,21.9432038 C115.749593,19.201625 117.97925,16.9719687 120.720828,16.9719687 L120.720828,16.9719687 Z" id="Fill-2" sketch:type="MSShapeGroup"></path>
                <path d="M120.720828,124.542883 C124.876234,124.542883 128.257716,121.161024 128.257716,117.004108 C128.257716,112.848325 124.876234,109.466843 120.720828,109.466843 C116.563535,109.466843 113.182053,112.848325 113.182053,117.004108 C113.182053,121.161024 116.563535,124.542883 120.720828,124.542883 L120.720828,124.542883 Z M120.720828,112.034383 C123.46052,112.034383 125.690554,114.264039 125.690554,117.004108 C125.690554,119.745309 123.46052,121.975343 120.720828,121.975343 C117.97925,121.975343 115.749593,119.745309 115.749593,117.004108 C115.749593,114.264039 117.97925,112.034383 120.720828,112.034383 L120.720828,112.034383 Z" id="Fill-3" sketch:type="MSShapeGroup"></path>
                <path d="M120.720828,77.0114876 C124.876234,77.0114876 128.257716,73.6300057 128.257716,69.4727121 C128.257716,65.3173062 124.876234,61.9358243 120.720828,61.9358243 C116.563535,61.9358243 113.182053,65.3173062 113.182053,69.4727121 C113.182053,73.6300057 116.563535,77.0114876 120.720828,77.0114876 L120.720828,77.0114876 Z M120.720828,64.502987 C123.46052,64.502987 125.690554,66.7330209 125.690554,69.4727121 C125.690554,72.2142909 123.46052,74.4439473 120.720828,74.4439473 C117.97925,74.4439473 115.749593,72.2142909 115.749593,69.4727121 C115.749593,66.7330209 117.97925,64.502987 120.720828,64.502987 L120.720828,64.502987 Z" id="Fill-4" sketch:type="MSShapeGroup"></path>
                <path d="M52.2028771,30.7485721 L73.4669127,30.7485721 C74.1759026,30.7485721 74.749739,30.1736031 74.749739,29.4657457 C74.749739,28.7563783 74.1759026,28.1810318 73.4669127,28.1810318 L52.2028771,28.1810318 C51.4935096,28.1810318 50.9200507,28.7563783 50.9200507,29.4657457 C50.9200507,30.1736031 51.4935096,30.7485721 52.2028771,30.7485721 L52.2028771,30.7485721 Z" id="Fill-5" sketch:type="MSShapeGroup"></path>
            </g>
        </g>
    </g>
</svg>