<?xml version="1.0" encoding="UTF-8" standalone="no"?>
<svg width="171px" height="49px" viewBox="0 0 171 49" version="1.1" xmlns="http://www.w3.org/2000/svg" xmlns:xlink="http://www.w3.org/1999/xlink" xmlns:sketch="http://www.bohemiancoding.com/sketch/ns">
    <!-- Generator: Sketch 3.3.1 (12002) - http://www.bohemiancoding.com/sketch -->
    <title>Group</title>
    <desc>Created with Sketch.</desc>
    <defs></defs>
    <g id="Connect" stroke="none" stroke-width="1" fill="none" fill-rule="evenodd" sketch:type="MSPage">
        <g id="Desktop-HD" sketch:type="MSArtboardGroup" transform="translate(-37.000000, -28.000000)">
            <g id="Group" sketch:type="MSLayerGroup" transform="translate(36.781321, 28.000000)">
                <path d="M0.789577662,31.9326506 L0.789577662,0.710795181 L6.39425391,0.710795181 L6.39425391,26.5603614 L20.6866442,26.5603614 L20.6866442,31.9338313 L0.789577662,31.9326506 L0.789577662,31.9326506 Z" id="Shape" fill="#FFFBF5" sketch:type="MSShapeGroup"></path>
                <path d="M37.6287932,32.5053012 C29.6806821,32.5053012 25.5528823,27.3963133 25.5528823,19.9542169 L25.5528823,0.710795181 L31.1575585,0.710795181 L31.1575585,19.8680241 C31.1575585,24.3146265 33.1562336,27.3538072 37.6299579,27.3538072 C42.104847,27.3538072 44.1023573,24.3146265 44.1023573,19.8680241 L44.1023573,0.710795181 L49.7070335,0.710795181 L49.7070335,19.9542169 C49.7047041,27.3963133 45.578069,32.5053012 37.6287932,32.5053012 L37.6287932,32.5053012 Z" id="Shape" fill="#FFFBF5" sketch:type="MSShapeGroup"></path>
                <path d="M77.2913119,28.8060964 C74.9886426,31.1828916 71.7751551,32.5053012 68.4743129,32.5053012 C65.1711413,32.5053012 62.0881035,31.4036867 59.7423392,29.0257108 C56.3972373,25.6358554 55.9196984,21.4525542 55.9196984,16.3435663 C55.9196984,11.235759 56.3972373,7.05127711 59.7423392,3.66142169 C62.0881035,1.28344578 65.1711413,0.139325301 68.4743129,0.139325301 C71.7751551,0.139325301 74.9898073,1.372 77.2913119,3.7499759 C79.0721827,5.59898795 79.9841655,8.06551807 80.2450648,10.5320482 L74.5111037,10.5320482 C74.380654,9.16713253 73.9031151,8.19775904 73.1215819,7.22956627 C72.1222444,5.9520241 70.3844686,5.292 68.4743129,5.292 C66.6922775,5.292 64.9545017,6.04057831 63.7385246,7.36062651 C61.6105646,9.60636145 61.6105646,13.4826747 61.6105646,16.3435663 C61.6105646,19.2068193 61.6105646,23.0807711 63.7385246,25.326506 C64.9545017,26.6477349 66.6922775,27.3963133 68.4743129,27.3963133 C70.3856333,27.3963133 72.1222444,26.6914217 73.1215819,25.4138795 C73.9031151,24.4456867 74.380654,23.3440723 74.5111037,21.9791566 L80.2450648,21.9791566 C79.9853303,24.4456867 79.0733474,26.9559036 77.2913119,28.8060964 L77.2913119,28.8060964 Z" id="Shape" fill="#FFFBF5" sketch:type="MSShapeGroup"></path>
                <rect id="Rectangle-path" fill="#01A9F4" sketch:type="MSShapeGroup" x="87.0808597" y="26.5662651" width="22.0249336" height="5.38927711"></rect>
                <rect id="Rectangle-path" fill="#01A9F4" sketch:type="MSShapeGroup" x="87.0808597" y="13.5783133" width="22.0249336" height="5.34111446"></rect>
                <rect id="Rectangle-path" fill="#01A9F4" sketch:type="MSShapeGroup" x="87.0808597" y="0.590361446" width="22.0249336" height="5.38927711"></rect>
                <path d="M133.42077,31.9326506 L128.294798,20.1313253 L121.475309,20.1313253 L121.475309,31.9326506 L115.828702,31.9326506 L115.828702,0.710795181 L128.816596,0.710795181 C136.157883,0.710795181 139.502985,5.37937349 139.502985,10.3998072 C139.502985,14.5831084 137.243411,17.8855904 133.855214,19.1619518 L139.502985,31.9326506 L133.42077,31.9326506 L133.42077,31.9326506 Z M128.816596,5.68518072 L121.432214,5.68518072 L121.432214,15.0211566 L128.903951,15.0211566 C132.075508,15.0211566 133.898309,13.3480723 133.898309,10.3986265 C133.898309,7.88840964 131.986989,5.68518072 128.816596,5.68518072 L128.816596,5.68518072 Z" id="Shape" fill="#FFFBF5" sketch:type="MSShapeGroup"></path>
                <path d="M164.48293,31.9326506 L162.484254,25.9440241 L150.234799,25.9440241 L148.234959,31.9326506 L142.588353,31.9326506 L153.405191,0.710795181 L159.529337,0.710795181 L170.346176,31.9326506 L164.48293,31.9326506 L164.48293,31.9326506 Z M156.358944,7.66761446 L151.972575,20.8350361 L160.746479,20.8350361 L156.358944,7.66761446 L156.358944,7.66761446 Z" id="Shape" fill="#FFFBF5" sketch:type="MSShapeGroup"></path>
                <path d="M165.187591,1.12168675 L165.187591,4.34742169 L164.729852,4.34742169 L164.729852,1.12168675 L163.655972,1.12168675 L163.655972,0.693084337 L166.259141,0.693084337 L166.259141,1.12168675 L165.187591,1.12168675 L165.187591,1.12168675 Z" id="Shape" fill="#EBEBEB" sketch:type="MSShapeGroup"></path>
                <path d="M170.065476,4.34860241 L170.065476,1.26691566 L168.947336,4.29783133 L168.589764,4.29783133 L167.471624,1.23975904 L167.471624,4.34860241 L167.03951,4.34860241 L167.03951,0.693084337 L167.690593,0.693084337 L168.779615,3.66850602 L169.862813,0.693084337 L170.498755,0.693084337 L170.498755,4.34860241 C170.498755,4.34860241 170.065476,4.34860241 170.065476,4.34860241 L170.065476,4.34860241 Z" id="Shape" fill="#EBEBEB" sketch:type="MSShapeGroup"></path>
                <g transform="translate(0.890909, 39.580932)" id="Shape" fill="#F9FAFA" sketch:type="MSShapeGroup">
                    <path d="M1.22296552,1.99468203 L1.22296552,4.59935673 L4.89302679,4.59935673 L4.89302679,5.54747721 L1.22296552,5.54747721 L1.22296552,9.06485071 L0.232945812,9.06485071 L0.232945812,1.07017601 L5.34028275,1.07017601 L5.34028275,1.99468203 L1.22296552,1.99468203 L1.22296552,1.99468203 Z"></path>
                    <path d="M7.20617871,9.06366998 L7.20617871,1.06899529 L8.21949299,1.06899529 L8.21949299,9.06366998 L7.20617871,9.06366998 L7.20617871,9.06366998 Z"></path>
                    <path d="M15.716854,9.06366998 L11.8464593,2.63699529 L11.8464593,9.06366998 L10.889052,9.06366998 L10.889052,1.06899529 L12.0013683,1.06899529 L15.8729277,7.52046517 L15.8729277,1.06899529 L16.8291702,1.06899529 L16.8291702,9.06366998 L15.716854,9.06366998 L15.716854,9.06366998 Z"></path>
                    <path d="M24.1797753,9.06366998 L23.5345154,7.16979047 L20.1090473,7.16979047 L19.4754347,9.06366998 L18.4737677,9.06366998 L21.2551407,1.06899529 L22.4117166,1.06899529 L25.2035722,9.06366998 C25.2035722,9.06366998 24.1797753,9.06366998 24.1797753,9.06366998 L24.1797753,9.06366998 Z M21.8107164,2.07260974 L20.4211946,6.22285071 L23.2130502,6.22285071 L21.8107164,2.07260974 L21.8107164,2.07260974 Z"></path>
                    <path d="M31.6771363,9.06366998 L27.8067416,2.63699529 L27.8067416,9.06366998 L26.8504991,9.06366998 L26.8504991,1.06899529 L27.9628153,1.06899529 L31.83321,7.52046517 L31.83321,1.06899529 L32.7894526,1.06899529 L32.7894526,9.06366998 L31.6771363,9.06366998 L31.6771363,9.06366998 Z"></path>
                    <path d="M40.1749995,8.36586276 C39.6974606,8.84995914 38.9182569,9.22306757 38.062181,9.22306757 C37.2724947,9.22306757 36.493291,8.92906757 35.9260679,8.36586276 C35.0699921,7.52046517 34.9360482,6.34682661 34.9360482,5.07282661 C34.9360482,3.79764589 35.0688273,2.62636878 35.9260679,1.77979047 C36.493291,1.21540492 37.2724947,0.922585647 38.062181,0.922585647 C38.9182569,0.922585647 39.6869781,1.26027239 40.164517,1.7455495 C40.6222555,2.21783866 40.9111083,2.82827239 40.9437207,3.57212782 L39.9199239,3.57212782 C39.9094413,3.1328989 39.7428851,2.75034468 39.4866447,2.45634468 C39.1744973,2.10685071 38.6631812,1.86952541 38.062181,1.86952541 C37.5275704,1.86952541 37.0057718,2.08441697 36.6272348,2.47877842 C35.9819749,3.15533263 35.9598451,4.23805553 35.9598451,5.07282661 C35.9598451,5.9075977 35.9831397,6.98913986 36.6272348,7.66569408 C37.0057718,8.06005553 37.5275704,8.27494709 38.062181,8.27494709 C38.6631812,8.27494709 39.1861446,8.01636878 39.4971272,7.66569408 C39.7522029,7.3728748 39.9187592,6.9548989 39.9304064,6.51566998 L40.9542033,6.51566998 C40.9204261,7.26070613 40.6304086,7.89239288 40.1749995,8.36586276 L40.1749995,8.36586276 Z"></path>
                    <path d="M42.9540431,9.06366998 L42.9540431,1.06899529 L43.9673574,1.06899529 L43.9673574,9.06366998 C43.9673574,9.06366998 42.9540431,9.06366998 42.9540431,9.06366998 L42.9540431,9.06366998 Z"></path>
                    <path d="M51.3191272,9.06366998 L50.6738673,7.16979047 L47.2483991,7.16979047 L46.6147865,9.06366998 L45.6131195,9.06366998 L48.3944925,1.06899529 L49.5522332,1.06899529 L52.3429241,9.06366998 L51.3191272,9.06366998 L51.3191272,9.06366998 Z M48.9500683,2.07260974 L47.5605465,6.22285071 L50.3524021,6.22285071 L48.9500683,2.07260974 L48.9500683,2.07260974 Z"></path>
                    <path d="M53.9886862,9.06366998 L53.9886862,1.06899529 L54.9787059,1.06899529 L54.9787059,8.12853745 L58.7722285,8.12853745 L58.7722285,9.06366998 L53.9886862,9.06366998 L53.9886862,9.06366998 Z"></path>
                    <path d="M63.485887,9.06366998 L63.485887,1.06899529 L64.4992013,1.06899529 L64.4992013,9.06366998 L63.485887,9.06366998 L63.485887,9.06366998 Z"></path>
                    <path d="M71.9965623,9.06366998 L68.1250029,2.63699529 L68.1250029,9.06366998 L67.1687603,9.06366998 L67.1687603,1.06899529 L68.2810765,1.06899529 L72.1514712,7.52046517 L72.1514712,1.06899529 L73.1088785,1.06899529 L73.1088785,9.06366998 C73.1088785,9.06366998 71.9965623,9.06366998 71.9965623,9.06366998 L71.9965623,9.06366998 Z"></path>
                    <path d="M76.7684572,1.99468203 L76.7684572,4.59935673 L80.4373538,4.59935673 L80.4373538,5.54747721 L76.7684572,5.54747721 L76.7684572,9.06485071 L75.7772728,9.06485071 L75.7772728,1.07017601 L80.883445,1.07017601 L80.883445,1.99468203 L76.7684572,1.99468203 L76.7684572,1.99468203 Z"></path>
                    <path d="M87.4117514,9.06366998 L85.9220629,5.7375736 L83.7416901,5.7375736 L83.7416901,9.06366998 L82.7516704,9.06366998 L82.7516704,1.06899529 L85.8428613,1.06899529 C86.7664915,1.06899529 87.4117514,1.32875432 87.8461953,1.77979047 C88.2235676,2.18595914 88.4681607,2.70429649 88.4681607,3.40446517 C88.4681607,4.10345312 88.2456974,4.576923 87.8671605,4.98309167 C87.6342146,5.23104348 87.3011021,5.42232059 86.9214005,5.54747721 L88.5007731,9.06485071 L87.4117514,9.06366998 L87.4117514,9.06366998 Z M85.8440261,1.99468203 L83.7416901,1.99468203 L83.7416901,4.80244107 L85.8440261,4.80244107 C86.7793035,4.80244107 87.4466933,4.41870613 87.4466933,3.40446517 C87.4466933,2.3902242 86.7781388,1.99468203 85.8440261,1.99468203 L85.8440261,1.99468203 Z"></path>
                    <path d="M95.2422249,9.06366998 L94.5981297,7.16979047 L91.1714968,7.16979047 L90.5378842,9.06366998 L89.5362172,9.06366998 L92.3187549,1.06899529 L93.4741662,1.06899529 L96.2660217,9.06366998 L95.2422249,9.06366998 L95.2422249,9.06366998 Z M92.873166,2.07260974 L91.4836442,6.22285071 L94.2754998,6.22285071 L92.873166,2.07260974 L92.873166,2.07260974 Z"></path>
                    <path d="M102.640584,8.41073023 C102.094326,8.95268203 101.248733,9.21244107 100.403139,9.21244107 C99.4468968,9.21244107 98.6793403,8.94205553 98.1458944,8.44615191 C97.6450609,7.97268203 97.3003011,7.28550131 97.3003011,6.52983866 L98.3345805,6.52983866 C98.3345805,7.00212782 98.5686911,7.4755977 98.891321,7.79203143 C99.2477281,8.14152541 99.8475636,8.28793504 100.404304,8.28793504 C101.006469,8.28793504 101.51662,8.16513986 101.873027,7.82509167 C102.117621,7.5995736 102.274859,7.31738083 102.274859,6.88995914 C102.274859,6.27007962 101.88351,5.74938083 100.950562,5.60297119 L99.7043019,5.41169408 C98.5244314,5.2322242 97.601966,4.56629649 97.601966,3.29111577 C97.601966,2.69366998 97.8686889,2.11865794 98.2914856,1.71248926 C98.8365788,1.19415191 99.5365809,0.92376637 100.361209,0.92376637 C101.127601,0.92376637 101.88351,1.18352541 102.407638,1.69005553 C102.885177,2.1528989 103.142582,2.72673023 103.163547,3.40446517 L102.128103,3.40446517 C102.104809,3.008923 101.960382,2.65942902 101.739084,2.39966998 C101.438583,2.05017601 100.95988,1.84591095 100.349562,1.84591095 C99.7823388,1.84591095 99.2931526,2.00530854 98.947228,2.39966998 C98.7468946,2.63581456 98.6245981,2.90738083 98.6245981,3.26750131 C98.6245981,3.988923 99.2151157,4.31716396 99.8044686,4.39509167 C100.249395,4.45176637 100.682674,4.52969408 101.117118,4.59817601 C102.430933,4.78945312 103.307974,5.60179047 103.307974,6.86516396 C103.305644,7.53109167 103.028439,8.02699529 102.640584,8.41073023 L102.640584,8.41073023 Z"></path>
                    <path d="M107.800334,2.00648926 L107.800334,9.06485071 L106.798667,9.06485071 L106.798667,2.00648926 L104.451738,2.00648926 L104.451738,1.07017601 L110.147263,1.07017601 L110.147263,2.00648926 L107.800334,2.00648926 L107.800334,2.00648926 Z"></path>
                    <path d="M116.509013,9.06366998 L115.019324,5.7375736 L112.840116,5.7375736 L112.840116,9.06366998 L111.847767,9.06366998 L111.847767,1.06899529 L114.940123,1.06899529 C115.863753,1.06899529 116.509013,1.32875432 116.943457,1.77979047 C117.321994,2.18595914 117.565422,2.70429649 117.565422,3.40446517 C117.565422,4.10345312 117.344124,4.576923 116.965587,4.98309167 C116.731476,5.23104348 116.398364,5.42232059 116.019827,5.54747721 L117.599199,9.06485071 L116.509013,9.06366998 L116.509013,9.06366998 Z M114.940123,1.99468203 L112.838952,1.99468203 L112.838952,4.80244107 L114.940123,4.80244107 C115.8754,4.80244107 116.54279,4.41870613 116.54279,3.40446517 C116.54279,2.3902242 115.8754,1.99468203 114.940123,1.99468203 L114.940123,1.99468203 Z"></path>
                    <path d="M122.315187,9.21126035 C120.545964,9.21126035 119.433648,8.12853745 119.433648,6.13311577 L119.433648,1.07017601 L120.423667,1.07017601 L120.423667,6.15673023 C120.423667,7.43073023 120.945466,8.27612782 122.315187,8.27612782 C123.683744,8.27612782 124.205542,7.43073023 124.205542,6.15673023 L124.205542,1.07017601 L125.195562,1.07017601 L125.195562,6.13311577 C125.195562,8.12853745 124.083246,9.21126035 122.315187,9.21126035 L122.315187,9.21126035 Z"></path>
                    <path d="M132.358646,8.36586276 C131.879942,8.84995914 131.101903,9.22306757 130.245827,9.22306757 C129.454976,9.22306757 128.676937,8.92906757 128.109714,8.36586276 C127.253638,7.52046517 127.119695,6.34682661 127.119695,5.07282661 C127.119695,3.79764589 127.252474,2.62636878 128.109714,1.77979047 C128.676937,1.21540492 129.454976,0.922585647 130.245827,0.922585647 C131.101903,0.922585647 131.86946,1.26027239 132.348163,1.7455495 C132.804737,2.21783866 133.09359,2.82827239 133.127367,3.57212782 L132.10357,3.57212782 C132.091923,3.1328989 131.926531,2.75034468 131.669126,2.45634468 C131.358144,2.10685071 130.846828,1.86952541 130.245827,1.86952541 C129.711217,1.86952541 129.189418,2.08441697 128.810881,2.47877842 C128.164457,3.15533263 128.143491,4.23805553 128.143491,5.07282661 C128.143491,5.9075977 128.165621,6.98913986 128.810881,7.66569408 C129.189418,8.06005553 129.711217,8.27494709 130.245827,8.27494709 C130.846828,8.27494709 131.368626,8.01636878 131.680774,7.66569408 C131.935849,7.3728748 132.102406,6.9548989 132.114053,6.51566998 L133.13785,6.51566998 C133.104073,7.26070613 132.81522,7.89239288 132.358646,8.36586276 L132.358646,8.36586276 Z"></path>
                    <path d="M137.51956,2.00648926 L137.51956,9.06485071 L136.519058,9.06485071 L136.519058,2.00648926 L134.170964,2.00648926 L134.170964,1.07017601 L139.867654,1.07017601 L139.867654,2.00648926 L137.51956,2.00648926 L137.51956,2.00648926 Z"></path>
                    <path d="M144.227235,9.21126035 C142.456847,9.21126035 141.344531,8.12853745 141.344531,6.13311577 L141.344531,1.07017601 L142.33455,1.07017601 L142.33455,6.15673023 C142.33455,7.43073023 142.858678,8.27612782 144.227235,8.27612782 C145.594627,8.27612782 146.11759,7.43073023 146.11759,6.15673023 L146.11759,1.07017601 L147.10761,1.07017601 L147.10761,6.13311577 C147.106445,8.12853745 145.995294,9.21126035 144.227235,9.21126035 L144.227235,9.21126035 Z"></path>
                    <path d="M154.214787,9.06366998 L152.725098,5.7375736 L150.544725,5.7375736 L150.544725,9.06366998 L149.553541,9.06366998 L149.553541,1.06899529 L152.645897,1.06899529 C153.569527,1.06899529 154.214787,1.32875432 154.649231,1.77979047 C155.026603,2.18595914 155.271196,2.70429649 155.271196,3.40446517 C155.271196,4.10345312 155.048733,4.576923 154.670196,4.98309167 C154.43725,5.23104348 154.102973,5.42232059 153.724436,5.54747721 L155.302644,9.06485071 L154.214787,9.06366998 L154.214787,9.06366998 Z M152.645897,1.99468203 L150.543561,1.99468203 L150.543561,4.80244107 L152.645897,4.80244107 C153.581174,4.80244107 154.247399,4.41870613 154.247399,3.40446517 C154.247399,2.3902242 153.581174,1.99468203 152.645897,1.99468203 L152.645897,1.99468203 Z"></path>
                    <path d="M157.361885,9.06366998 L157.361885,1.06899529 L162.633448,1.06899529 L162.633448,1.99350131 L158.35074,1.99350131 L158.35074,4.42815191 L162.11165,4.42815191 L162.11165,5.37509167 L158.35074,5.37509167 L158.35074,8.13916396 L162.633448,8.13916396 L162.633448,9.06248926 L157.361885,9.06248926 L157.361885,9.06366998 L157.361885,9.06366998 Z"></path>
                    <path d="M169.485549,8.41073023 C168.940456,8.95268203 168.096028,9.21244107 167.250434,9.21244107 C166.293027,9.21244107 165.526635,8.94205553 164.992025,8.44615191 C164.491191,7.97268203 164.146431,7.28550131 164.146431,6.52983866 L165.181876,6.52983866 C165.181876,7.00212782 165.414821,7.4755977 165.737451,7.79203143 C166.093858,8.14152541 166.694859,8.28793504 167.251599,8.28793504 C167.852599,8.28793504 168.362751,8.16513986 168.719158,7.82509167 C168.964916,7.5995736 169.119825,7.31738083 169.119825,6.88995914 C169.119825,6.27007962 168.730805,5.74938083 167.795528,5.60297119 L166.551597,5.41169408 C165.370562,5.2322242 164.448096,4.56629649 164.448096,3.29111577 C164.448096,2.69366998 164.714819,2.11865794 165.137616,1.71248926 C165.683874,1.19415191 166.383876,0.92376637 167.206175,0.92376637 C167.974896,0.92376637 168.730805,1.18352541 169.253768,1.69005553 C169.731307,2.1528989 169.988712,2.72673023 170.009678,3.40446517 L168.975398,3.40446517 C168.952104,3.008923 168.807677,2.65942902 168.585214,2.39966998 C168.284714,2.05017601 167.80601,1.84591095 167.195692,1.84591095 C166.628469,1.84591095 166.139283,2.00530854 165.793358,2.39966998 C165.593025,2.63581456 165.471893,2.90738083 165.471893,3.26750131 C165.471893,3.988923 166.061246,4.31716396 166.650599,4.39509167 C167.09669,4.45176637 167.529969,4.52969408 167.964413,4.59817601 C169.277063,4.78945312 170.155269,5.60179047 170.155269,6.86516396 C170.152939,7.53109167 169.875734,8.02699529 169.485549,8.41073023 L169.485549,8.41073023 Z"></path>
                </g>
            </g>
        </g>
    </g>
</svg>